Coordinates
version=1
nRows=13
nColumns=40
inDegrees=yes

Units are S.I. units (second, meters, Newtons, ...)
If the header above contains a line with 'inDegrees', this indicates whether rotational values are in degrees (yes) or radians (no).

endheader
time	pelvis_tilt	pelvis_list	pelvis_rotation	pelvis_tx	pelvis_ty	pelvis_tz	hip_flexion_r	hip_adduction_r	hip_rotation_r	knee_angle_r	knee_angle_r_beta	ankle_angle_r	subtalar_angle_r	mtp_angle_r	hip_flexion_l	hip_adduction_l	hip_rotation_l	knee_angle_l	knee_angle_l_beta	ankle_angle_l	subtalar_angle_l	mtp_angle_l	lumbar_extension	lumbar_bending	lumbar_rotation	arm_flex_r	arm_add_r	arm_rot_r	elbow_flex_r	pro_sup_r	wrist_flex_r	wrist_dev_r	arm_flex_l	arm_add_l	arm_rot_l	elbow_flex_l	pro_sup_l	wrist_flex_l	wrist_dev_l
      8.28333333	     -3.85432962	     14.10234105	     -5.59778858	     -0.25661859	      1.07140566	      0.26499187	     75.63306980	    -10.22469836	     27.68463091	    120.42350510	      2.10178666	     28.95420996	      7.89646637	      0.00000000	     39.77532363	      0.35963053	    -21.94238678	     39.14551721	      0.68321816	     -4.18010689	      1.00673035	      0.00000000	    -54.95690895	    -14.84195166	     -8.29818433	     89.79917803	    -14.29303390	     40.66014407	     36.98112132	     88.44398610	      0.00000000	      0.00000000	     89.86034800	     -5.30860939	     30.06005715	     36.28402250	     88.92910797	      0.00000000	      0.00000000
      8.29166667	     -3.90286975	     13.70877892	     -6.06877890	     -0.25689070	      1.07149193	      0.26612875	     77.52441609	     -9.34432824	     27.42264646	    121.11542894	      2.11386301	     30.24080095	      8.63026105	      0.00000000	     38.17720252	      0.09334682	    -22.05617864	     38.02903719	      0.66373191	     -4.99423125	      1.04786961	      0.00000000	    -54.86921928	    -14.90182117	     -7.71990592	     89.80400466	    -14.18076645	     40.34024539	     37.12289958	     88.45538323	      0.00000000	      0.00000000	     89.85918978	     -5.33726709	     29.89568146	     36.34770015	     88.92744188	      0.00000000	      0.00000000
      8.30000000	     -3.63176587	     13.97164493	     -6.91999245	     -0.25663571	      1.07224515	      0.26716460	     79.26668731	     -8.67932239	     27.94751565	    121.36750077	      2.11826249	     31.41340844	     10.59534990	      0.00000000	     36.32463364	      0.23845104	    -22.97492845	     37.20009253	      0.64926410	     -5.76120331	      0.96781458	      0.00000000	    -55.14895276	    -15.63539525	     -7.53733993	     89.80525948	    -14.09942323	     40.00099459	     37.29607519	     88.47351485	      0.00000000	      0.00000000	     89.85846520	     -5.29199296	     29.52492102	     36.40339773	     88.93898911	      0.00000000	      0.00000000
      8.30833333	     -3.42365415	     14.16566225	     -7.00317644	     -0.25624989	      1.07361218	      0.26723065	     80.71212513	     -8.68702309	     28.00142649	    121.14689297	      2.11441216	     32.33063942	     11.04637089	      0.00000000	     34.76250849	      0.96948332	    -22.57921504	     36.52392672	      0.63746278	     -6.30570308	      0.19868539	      0.00000000	    -55.52253592	    -15.73780254	     -7.77172066	     89.80580277	    -14.03340689	     39.70727821	     37.42408084	     88.48374815	      0.00000000	      0.00000000	     89.85879242	     -5.29231529	     29.22107305	     36.54541441	     88.94245774	      0.00000000	      0.00000000
      8.31666667	     -3.37362409	     14.15842609	     -7.11705515	     -0.25614846	      1.07468462	      0.26753478	     82.08109416	     -8.47065922	     27.62458072	    120.43104134	      2.10191819	     32.61014477	     11.19475355	      0.00000000	     33.74586232	      1.18869802	    -22.32282082	     36.95743792	      0.64502897	     -6.23931028	      0.07967520	      0.00000000	    -55.70201711	    -15.76490131	     -7.76921051	     89.81362597	    -14.01763204	     39.55392852	     37.55295927	     88.52745976	      0.00000000	      0.00000000	     89.86472015	     -5.29746240	     29.07195239	     36.68281481	     88.96477842	      0.00000000	      0.00000000
      8.32500000	     -3.63311369	     14.02457855	     -7.32880372	     -0.25634872	      1.07533359	      0.26806180	     83.68698406	     -7.78748364	     27.02390799	    119.36675692	      2.08334293	     32.38244703	     11.68939240	      0.00000000	     33.44190001	      1.08014359	    -21.96866536	     38.02183382	      0.66360619	     -6.00649984	     -1.21017622	      0.00000000	    -55.56762365	    -15.84765173	     -7.47987405	     89.80969401	    -14.11987981	     39.26006919	     37.90925575	     88.50934536	      0.00000000	      0.00000000	     89.86395819	     -5.18855529	     28.53464881	     36.90197143	     88.95816205	      0.00000000	      0.00000000
      8.33333333	     -3.59631478	     14.25578844	     -7.40191614	     -0.25570403	      1.07722043	      0.26844153	     84.59990626	     -7.91249618	     26.52908006	    117.76936022	      2.05546309	     32.39759685	     11.64600697	      0.00000000	     32.71130489	      1.43992389	    -21.85455557	     38.89018964	      0.67876186	     -5.89129553	     -1.27640873	      0.00000000	    -55.84764143	    -16.08418290	     -7.70788923	     89.80703998	    -14.20396324	     39.25674371	     38.00274116	     88.50491093	      0.00000000	      0.00000000	     89.87177751	     -5.16185666	     28.50512472	     37.03007108	     88.95657935	      0.00000000	      0.00000000
      8.34166667	     -4.28872210	     13.65214866	     -7.07141771	     -0.25641306	      1.07750719	      0.26836548	     85.73761930	     -7.72866733	     25.06837130	    115.65447215	      2.01855133	     31.35977453	     11.72023961	      0.00000000	     33.58892552	      0.95653695	    -20.56263780	     41.44449609	      0.72334291	     -4.78899086	     -3.54924013	      0.00000000	    -55.33330664	    -15.50627254	     -7.20519482	     89.80618839	    -14.48501380	     39.19934285	     38.57289250	     88.50375731	      0.00000000	      0.00000000	     89.87246170	     -5.05242263	     28.10008055	     37.37706873	     88.96152252	      0.00000000	      0.00000000
      8.35000000	     -4.62842119	     13.39370577	     -6.82307301	     -0.25678372	      1.07849873	      0.26839674	     86.28799303	     -7.81481945	     23.90300647	    113.26772565	      1.97689475	     30.37481485	     10.79878150	      0.00000000	     34.07612642	      0.77980906	    -19.73362160	     43.94123348	      0.76691920	     -3.65372906	     -5.02576260	      0.00000000	    -55.23506994	    -15.20958764	     -7.11161886	     89.80981343	    -14.62560898	     39.07369316	     38.90694810	     88.51550958	      0.00000000	      0.00000000	     89.87716300	     -5.07188691	     27.89352950	     37.81287197	     88.96873331	      0.00000000	      0.00000000
      8.35833333	     -4.62028590	     13.63243064	     -6.82737392	     -0.25684265	      1.07998777	      0.26847771	     86.38206429	     -7.96836368	     23.36182151	    110.56724887	      1.92976254	     29.32094460	     10.59760689	      0.00000000	     34.25111637	      1.00197757	    -19.39140696	     46.50581889	      0.81167966	     -2.02646119	     -5.90761702	      0.00000000	    -55.52315875	    -15.40278467	     -7.40760702	     89.81097485	    -14.69705086	     38.85771742	     39.21493069	     88.51105803	      0.00000000	      0.00000000	     89.88161549	     -5.16359742	     27.68636922	     38.37944464	     88.97309754	      0.00000000	      0.00000000
      8.36666667	     -5.22344323	     12.95502304	     -6.37010302	     -0.25772900	      1.08057177	      0.26840993	     86.37934865	     -8.15538536	     21.61874768	    107.39440202	      1.87438591	     27.72181877	      9.36858030	      0.00000000	     35.56222676	      0.36295732	    -18.05102439	     50.00113926	      0.87268451	     -0.47045549	     -7.31681189	      0.00000000	    -55.12226089	    -14.72104717	     -7.00279327	     89.81282856	    -14.82279251	     38.68444619	     39.51776162	     88.52599990	      0.00000000	      0.00000000	     89.88543302	     -5.15787051	     27.58036652	     38.67123628	     88.97651522	      0.00000000	      0.00000000
      8.37500000	     -4.98256440	     13.35279273	     -6.27685209	     -0.25765507	      1.08237011	      0.26830189	     85.67899691	     -9.06807115	     20.97338312	    103.86231375	      1.81273934	     25.80687780	     10.07372999	      0.00000000	     35.85836753	      0.77298586	    -17.62779084	     53.06053723	      0.92608108	      1.39232165	     -8.04227301	      0.00000000	    -55.66497506	    -14.95659552	     -7.58377850	     89.81347910	    -14.76830695	     38.42032266	     39.67585485	     88.52324647	      0.00000000	      0.00000000	     89.88955397	     -5.27054226	     27.42429049	     39.22506740	     88.98085902	      0.00000000	      0.00000000
      8.38333333	     -5.43587625	     12.75629086	     -5.74156508	     -0.25863278	      1.08308845	      0.26816090	     84.89363180	     -9.53761654	     19.46205750	    100.27827066	      1.75018599	     24.19847330	      9.62244251	      0.00000000	     37.41360502	      0.17061200	    -16.34918846	     57.01708834	      0.99513592	      3.05198264	     -8.90761596	      0.00000000	    -55.44709648	    -14.28744358	     -7.37834035	     89.81315531	    -14.82810751	     38.08201701	     39.93731688	     88.55105233	      0.00000000	      0.00000000	     89.89372740	     -5.32171068	     27.21924276	     39.60817692	     88.98464904	      0.00000000	      0.00000000
